<mxfile host="app.diagrams.net" modified="2023-11-15T17:45:38.660Z" agent="Mozilla/5.0 (X11; Linux x86_64) AppleWebKit/537.36 (KHTML, like Gecko) Chrome/119.0.0.0 Safari/537.36" etag="fmI6e8m0zbdxxJvG1azk" version="22.1.2" type="device">
  <diagram name="Page-1" id="58cdce13-f638-feb5-8d6f-7d28b1aa9fa0">
    <mxGraphModel dx="941" dy="532" grid="1" gridSize="10" guides="1" tooltips="1" connect="1" arrows="1" fold="1" page="1" pageScale="1" pageWidth="1100" pageHeight="850" background="none" math="0" shadow="0">
      <root>
        <mxCell id="0" />
        <mxCell id="1" parent="0" />
        <mxCell id="WrnixrNfzWl92gCkEUBg-3" value="" style="ellipse;html=1;shape=endState;fillColor=#000000;strokeColor=#ff0000;" vertex="1" parent="1">
          <mxGeometry x="565" y="600" width="30" height="30" as="geometry" />
        </mxCell>
        <mxCell id="WrnixrNfzWl92gCkEUBg-17" style="edgeStyle=orthogonalEdgeStyle;rounded=0;orthogonalLoop=1;jettySize=auto;html=1;entryX=0.5;entryY=0;entryDx=0;entryDy=0;" edge="1" parent="1" source="WrnixrNfzWl92gCkEUBg-15" target="WrnixrNfzWl92gCkEUBg-21">
          <mxGeometry relative="1" as="geometry">
            <mxPoint x="190" y="200" as="targetPoint" />
          </mxGeometry>
        </mxCell>
        <mxCell id="WrnixrNfzWl92gCkEUBg-19" value="Особистий кабинет існує" style="edgeLabel;html=1;align=center;verticalAlign=middle;resizable=0;points=[];" vertex="1" connectable="0" parent="WrnixrNfzWl92gCkEUBg-17">
          <mxGeometry x="-0.4519" relative="1" as="geometry">
            <mxPoint x="-10" as="offset" />
          </mxGeometry>
        </mxCell>
        <mxCell id="WrnixrNfzWl92gCkEUBg-18" style="edgeStyle=orthogonalEdgeStyle;rounded=0;orthogonalLoop=1;jettySize=auto;html=1;entryX=0.5;entryY=0;entryDx=0;entryDy=0;" edge="1" parent="1" source="WrnixrNfzWl92gCkEUBg-15" target="WrnixrNfzWl92gCkEUBg-39">
          <mxGeometry relative="1" as="geometry">
            <mxPoint x="820" y="190" as="targetPoint" />
            <Array as="points">
              <mxPoint x="680" y="75" />
            </Array>
          </mxGeometry>
        </mxCell>
        <mxCell id="WrnixrNfzWl92gCkEUBg-20" value="Особистий кабинет не існує" style="edgeLabel;html=1;align=center;verticalAlign=middle;resizable=0;points=[];" vertex="1" connectable="0" parent="WrnixrNfzWl92gCkEUBg-18">
          <mxGeometry x="-0.3917" y="-1" relative="1" as="geometry">
            <mxPoint x="-28" y="-1" as="offset" />
          </mxGeometry>
        </mxCell>
        <mxCell id="WrnixrNfzWl92gCkEUBg-15" value="" style="ellipse;html=1;shape=startState;fillColor=#000000;strokeColor=#ff0000;" vertex="1" parent="1">
          <mxGeometry x="460" y="60" width="30" height="30" as="geometry" />
        </mxCell>
        <mxCell id="WrnixrNfzWl92gCkEUBg-24" style="edgeStyle=orthogonalEdgeStyle;rounded=0;orthogonalLoop=1;jettySize=auto;html=1;exitX=0;exitY=0.5;exitDx=0;exitDy=0;entryX=0;entryY=0.5;entryDx=0;entryDy=0;" edge="1" parent="1" source="WrnixrNfzWl92gCkEUBg-21" target="WrnixrNfzWl92gCkEUBg-34">
          <mxGeometry relative="1" as="geometry">
            <mxPoint x="100" y="300" as="targetPoint" />
            <mxPoint x="230" y="190" as="sourcePoint" />
          </mxGeometry>
        </mxCell>
        <mxCell id="WrnixrNfzWl92gCkEUBg-25" value="Користувач не бажає&lt;br&gt;входити в особистий&amp;nbsp;&lt;br&gt;кабинет" style="edgeLabel;html=1;align=center;verticalAlign=middle;resizable=0;points=[];" vertex="1" connectable="0" parent="WrnixrNfzWl92gCkEUBg-24">
          <mxGeometry x="-0.3709" y="-2" relative="1" as="geometry">
            <mxPoint x="12" y="47" as="offset" />
          </mxGeometry>
        </mxCell>
        <mxCell id="WrnixrNfzWl92gCkEUBg-27" style="edgeStyle=orthogonalEdgeStyle;rounded=0;orthogonalLoop=1;jettySize=auto;html=1;exitX=1;exitY=0.5;exitDx=0;exitDy=0;" edge="1" parent="1" source="WrnixrNfzWl92gCkEUBg-21">
          <mxGeometry relative="1" as="geometry">
            <mxPoint x="300" y="170" as="targetPoint" />
            <mxPoint x="360" y="190.0000000000001" as="sourcePoint" />
            <Array as="points">
              <mxPoint x="540" y="190" />
              <mxPoint x="540" y="120" />
            </Array>
          </mxGeometry>
        </mxCell>
        <mxCell id="WrnixrNfzWl92gCkEUBg-28" value="Не правильний логін &lt;br&gt;чи пароль" style="edgeLabel;html=1;align=center;verticalAlign=middle;resizable=0;points=[];" vertex="1" connectable="0" parent="WrnixrNfzWl92gCkEUBg-27">
          <mxGeometry x="-0.6035" y="-1" relative="1" as="geometry">
            <mxPoint x="-27" y="-71" as="offset" />
          </mxGeometry>
        </mxCell>
        <mxCell id="WrnixrNfzWl92gCkEUBg-32" style="edgeStyle=orthogonalEdgeStyle;rounded=0;orthogonalLoop=1;jettySize=auto;html=1;entryX=0.5;entryY=0;entryDx=0;entryDy=0;" edge="1" parent="1" source="WrnixrNfzWl92gCkEUBg-21" target="WrnixrNfzWl92gCkEUBg-34">
          <mxGeometry relative="1" as="geometry">
            <mxPoint x="270" y="300" as="targetPoint" />
            <Array as="points">
              <mxPoint x="270" y="340" />
              <mxPoint x="580" y="340" />
            </Array>
          </mxGeometry>
        </mxCell>
        <mxCell id="WrnixrNfzWl92gCkEUBg-33" value="Користувач увішов &lt;br&gt;у особистий кабінет" style="edgeLabel;html=1;align=center;verticalAlign=middle;resizable=0;points=[];" vertex="1" connectable="0" parent="WrnixrNfzWl92gCkEUBg-32">
          <mxGeometry x="-0.2211" y="3" relative="1" as="geometry">
            <mxPoint y="-12" as="offset" />
          </mxGeometry>
        </mxCell>
        <mxCell id="WrnixrNfzWl92gCkEUBg-37" style="edgeStyle=orthogonalEdgeStyle;rounded=0;orthogonalLoop=1;jettySize=auto;html=1;exitX=0.75;exitY=1;exitDx=0;exitDy=0;" edge="1" parent="1" source="WrnixrNfzWl92gCkEUBg-21" target="WrnixrNfzWl92gCkEUBg-39">
          <mxGeometry relative="1" as="geometry">
            <mxPoint x="700" y="275" as="targetPoint" />
            <Array as="points">
              <mxPoint x="330" y="275" />
            </Array>
          </mxGeometry>
        </mxCell>
        <mxCell id="WrnixrNfzWl92gCkEUBg-38" value="Користувач бажає створити&lt;br&gt;новий особистий&lt;br&gt;кабинет" style="edgeLabel;html=1;align=center;verticalAlign=middle;resizable=0;points=[];" vertex="1" connectable="0" parent="WrnixrNfzWl92gCkEUBg-37">
          <mxGeometry x="-0.1653" relative="1" as="geometry">
            <mxPoint x="45" as="offset" />
          </mxGeometry>
        </mxCell>
        <mxCell id="WrnixrNfzWl92gCkEUBg-21" value="Користувач водить логін та пароль" style="rounded=1;whiteSpace=wrap;html=1;arcSize=40;fontColor=#000000;fillColor=#ffffc0;strokeColor=#ff0000;" vertex="1" parent="1">
          <mxGeometry x="240" y="170" width="120" height="40" as="geometry" />
        </mxCell>
        <mxCell id="WrnixrNfzWl92gCkEUBg-52" style="edgeStyle=orthogonalEdgeStyle;rounded=0;orthogonalLoop=1;jettySize=auto;html=1;" edge="1" parent="1" source="WrnixrNfzWl92gCkEUBg-34" target="WrnixrNfzWl92gCkEUBg-3">
          <mxGeometry relative="1" as="geometry" />
        </mxCell>
        <mxCell id="WrnixrNfzWl92gCkEUBg-34" value="Відкривається головна сторінка" style="rounded=1;whiteSpace=wrap;html=1;arcSize=40;fontColor=#000000;fillColor=#ffffc0;strokeColor=#ff0000;" vertex="1" parent="1">
          <mxGeometry x="520" y="470" width="120" height="40" as="geometry" />
        </mxCell>
        <mxCell id="WrnixrNfzWl92gCkEUBg-41" style="edgeStyle=orthogonalEdgeStyle;rounded=0;orthogonalLoop=1;jettySize=auto;html=1;" edge="1" parent="1" source="WrnixrNfzWl92gCkEUBg-39" target="WrnixrNfzWl92gCkEUBg-43">
          <mxGeometry relative="1" as="geometry">
            <mxPoint x="970" y="350" as="targetPoint" />
          </mxGeometry>
        </mxCell>
        <mxCell id="WrnixrNfzWl92gCkEUBg-42" value="Некоректно введені дані" style="edgeLabel;html=1;align=center;verticalAlign=middle;resizable=0;points=[];" vertex="1" connectable="0" parent="WrnixrNfzWl92gCkEUBg-41">
          <mxGeometry x="-0.543" y="-2" relative="1" as="geometry">
            <mxPoint x="28" y="-2" as="offset" />
          </mxGeometry>
        </mxCell>
        <mxCell id="WrnixrNfzWl92gCkEUBg-49" style="edgeStyle=orthogonalEdgeStyle;rounded=0;orthogonalLoop=1;jettySize=auto;html=1;entryX=1;entryY=0.5;entryDx=0;entryDy=0;" edge="1" parent="1" source="WrnixrNfzWl92gCkEUBg-39" target="WrnixrNfzWl92gCkEUBg-34">
          <mxGeometry relative="1" as="geometry" />
        </mxCell>
        <mxCell id="WrnixrNfzWl92gCkEUBg-51" value="Дані для реєстрації &lt;br&gt;акаунту коректні" style="edgeLabel;html=1;align=center;verticalAlign=middle;resizable=0;points=[];" vertex="1" connectable="0" parent="WrnixrNfzWl92gCkEUBg-49">
          <mxGeometry x="-0.6821" y="1" relative="1" as="geometry">
            <mxPoint x="59" y="8" as="offset" />
          </mxGeometry>
        </mxCell>
        <mxCell id="WrnixrNfzWl92gCkEUBg-39" value="Відкривається екран реєстрації с полями необхідними для вводу" style="rounded=1;whiteSpace=wrap;html=1;arcSize=40;fontColor=#000000;fillColor=#ffffc0;strokeColor=#ff0000;" vertex="1" parent="1">
          <mxGeometry x="600" y="260" width="160" height="70" as="geometry" />
        </mxCell>
        <mxCell id="WrnixrNfzWl92gCkEUBg-50" style="edgeStyle=orthogonalEdgeStyle;rounded=0;orthogonalLoop=1;jettySize=auto;html=1;entryX=1;entryY=0.5;entryDx=0;entryDy=0;" edge="1" parent="1" source="WrnixrNfzWl92gCkEUBg-43" target="WrnixrNfzWl92gCkEUBg-34">
          <mxGeometry relative="1" as="geometry">
            <mxPoint x="720" y="500" as="targetPoint" />
            <Array as="points">
              <mxPoint x="680" y="390" />
              <mxPoint x="680" y="490" />
            </Array>
          </mxGeometry>
        </mxCell>
        <mxCell id="WrnixrNfzWl92gCkEUBg-43" value="Відображення повідомлення некоректно введених даних&amp;nbsp;" style="rounded=1;whiteSpace=wrap;html=1;arcSize=40;fontColor=#000000;fillColor=#ffffc0;strokeColor=#ff0000;" vertex="1" parent="1">
          <mxGeometry x="840" y="360" width="150" height="60" as="geometry" />
        </mxCell>
        <mxCell id="WrnixrNfzWl92gCkEUBg-47" style="edgeStyle=orthogonalEdgeStyle;rounded=0;orthogonalLoop=1;jettySize=auto;html=1;entryX=0.75;entryY=0;entryDx=0;entryDy=0;" edge="1" parent="1" source="WrnixrNfzWl92gCkEUBg-43" target="WrnixrNfzWl92gCkEUBg-43">
          <mxGeometry relative="1" as="geometry">
            <Array as="points">
              <mxPoint x="1070" y="390" />
              <mxPoint x="1060" y="290" />
            </Array>
          </mxGeometry>
        </mxCell>
        <mxCell id="WrnixrNfzWl92gCkEUBg-48" value="Некоретно введені &lt;br&gt;данні" style="edgeLabel;html=1;align=center;verticalAlign=middle;resizable=0;points=[];" vertex="1" connectable="0" parent="WrnixrNfzWl92gCkEUBg-47">
          <mxGeometry x="-0.5782" y="2" relative="1" as="geometry">
            <mxPoint x="-57" y="-93" as="offset" />
          </mxGeometry>
        </mxCell>
      </root>
    </mxGraphModel>
  </diagram>
</mxfile>
